HIERARCHY
ROOT Hips
{
	OFFSET 0.00000 0.00000 0.00000
	CHANNELS 6 Xposition Yposition Zposition Zrotation Yrotation Xrotation 
	JOINT LHipJoint
	{
		OFFSET 0 0 0
		CHANNELS 3 Zrotation Yrotation Xrotation
		JOINT LeftHip
		{
			OFFSET 1.57338 -1.94743 0.52196
			CHANNELS 3 Zrotation Yrotation Xrotation
			JOINT LeftKnee
			{
				OFFSET 2.60333 -7.15259 0.00000
				CHANNELS 3 Zrotation Yrotation Xrotation
				JOINT LeftAnkle
				{
					OFFSET 2.77855 -7.63400 0.00000
					CHANNELS 3 Zrotation Yrotation Xrotation
					JOINT LeftToe
					{
						OFFSET 0.19847 -0.54529 2.28466
						CHANNELS 3 Zrotation Yrotation Xrotation
						End Site
						{
							OFFSET 0.00000 -0.00000 1.17993
						}
					}
				}
			}
		}
	}
	JOINT RHipJoint
	{
		OFFSET 0 0 0
		CHANNELS 3 Zrotation Yrotation Xrotation
		JOINT RightHip
		{
			OFFSET -1.61527 -1.94743 0.52196
			CHANNELS 3 Zrotation Yrotation Xrotation
			JOINT RightKnee
			{
				OFFSET -2.53829 -6.97390 0.00000
				CHANNELS 3 Zrotation Yrotation Xrotation
				JOINT RightAnkle
				{
					OFFSET -2.80762 -7.71387 0.00000
					CHANNELS 3 Zrotation Yrotation Xrotation
					JOINT RightToe
					{
						OFFSET -0.30536 -0.83898 2.28801
						CHANNELS 3 Zrotation Yrotation Xrotation
						End Site
						{
							OFFSET -0.00000 -0.00000 1.21323
						}
					}
				}
			}
		}
	}
	JOINT lowerback
	{
		OFFSET 0 0 0
		CHANNELS 3 Zrotation Yrotation Xrotation
		JOINT Chest
		{
			OFFSET -0.04381 1.99497 -0.19778
			CHANNELS 3 Zrotation Yrotation Xrotation
			JOINT Chest2
			{
				OFFSET -0.01959 2.01295 -0.04372
				CHANNELS 3 Zrotation Yrotation Xrotation
				JOINT lowerneck
				{
					OFFSET 0 0 0
					CHANNELS 3 Zrotation Yrotation Xrotation
					JOINT Neck
					{
						OFFSET -0.05459 1.76913 0.09708
						CHANNELS 3 Zrotation Yrotation Xrotation
						JOINT Head
						{
							OFFSET 0.09461 1.77368 -0.11172
							CHANNELS 3 Zrotation Yrotation Xrotation
							End Site
							{
								OFFSET 0.03812 1.78157 -0.04834
							}
						}
					}
				}
				JOINT LeftCollar
				{
					OFFSET 0 0 0
					CHANNELS 3 Zrotation Yrotation Xrotation
					JOINT LeftShoulder
					{
						OFFSET 3.50922 1.24034 -0.28866
CHANNELS 3 Zrotation Xrotation Yrotation
						JOINT LeftElbow
						{
OFFSET 0 -5.401880 0.000000
CHANNELS 3 Zrotation Xrotation Yrotation
							JOINT LeftWrist
							{
OFFSET 0 -3.685590 0.000000
CHANNELS 3 Zrotation Xrotation Yrotation
								JOINT lhand
								{
									OFFSET 0 0 0
CHANNELS 3 Zrotation Xrotation Yrotation
									JOINT LFingers
									{
OFFSET 0 -0.617530 0.000000
CHANNELS 3 Zrotation Xrotation Yrotation
										End Site
										{
OFFSET 0 -0.497870 0.000000
										}
									}
								}
								JOINT LThumb
								{
OFFSET 0 0.000000 0.000000
CHANNELS 3 Zrotation Xrotation Yrotation
									End Site
									{
OFFSET 0 -0.505470 0.505470
									}
								}
							}
						}
					}
				}
				JOINT RightCollar
				{
					OFFSET 0 0 0
					CHANNELS 3 Zrotation Yrotation Xrotation
					JOINT RightShoulder
					{
						OFFSET -2.95373 1.39649 -0.27346
CHANNELS 3 Zrotation Xrotation Yrotation
						JOINT RightElbow
						{
OFFSET 0 -6.106700 -0.000000
CHANNELS 3 Zrotation Xrotation Yrotation
							JOINT RightWrist
							{
OFFSET 0 -3.630520 0.000000
CHANNELS 3 Zrotation Xrotation Yrotation
								JOINT rhand
								{
									OFFSET 0 0 0
CHANNELS 3 Zrotation Xrotation Yrotation
									JOINT RFingers
									{
OFFSET 0 -0.583850 0.000000
CHANNELS 3 Zrotation Xrotation Yrotation
										End Site
										{
OFFSET 0 -0.470710 0.000000
										}
									}
								}
								JOINT RThumb
								{
OFFSET 0 0.000000 0.000000
CHANNELS 3 Zrotation Xrotation Yrotation
									End Site
									{
OFFSET 0 -0.477900 0.477900
									}
								}
							}
						}
					}
				}
			}
		}
	}
}
MOTION
Frames: 6
Frame Time: 0.008333333333333333
-10.754826 18.888274 1.979135 9.491479 -64.789991 -4.672513 0.000000 0.000000 0.000000 -15.834501 -17.569430 -18.003447 2.876412 10.490979 30.583146 0.001140 -0.265205 0.113260 0.979823 -6.240026 -17.502689 0.000000 0.000000 0.000000 14.307242 17.165032 9.695444 -1.952049 -8.765487 25.064382 -0.890087 -11.247890 -25.185667 -0.451633 4.309016 -11.947929 -0.205295 4.158337 7.014402 -1.367226 5.455915 -1.691646 -1.941816 2.675579 -5.571396 -5.184348 -0.570626 -11.659960 8.197047 -0.354277 -1.618762 3.621795 0.008881 1.579120 0.000000 0.000000 0.000000 162.648613 -29.471419 99.323473 12.286917 -20.233481 2.200628 11.473817 -22.373382 -25.289756 0.000000 0.000000 0.000000 -7.125000 0.000000 0.000000 -19.241657 54.668958 4.700942 0.000000 0.000000 0.000000 -156.032166 -34.436533 -107.421764 -7.955968 -13.481527 -0.941882 -31.329533 3.805728 8.262686 0.000000 0.000000 0.000000 7.125000 0.000000 0.000000 -3.901927 39.599503 -0.520255
-10.758606 18.224554 2.311763 13.065848 -65.365838 -10.447390 0.000000 0.000000 0.000000 -19.866003 -13.285371 -17.904049 3.764812 11.840403 35.170241 0.292771 -5.475256 -9.783100 0.741089 -5.494434 -15.325558 0.000000 0.000000 0.000000 13.176935 17.035714 14.125814 -2.086439 -9.043497 25.931800 -2.123830 -9.453876 -32.234171 -0.306248 3.555925 -9.830759 -2.578838 4.041786 8.748431 -1.614736 5.006496 -0.721449 -0.923451 2.512451 -5.730309 -6.220167 -0.262117 -11.009321 10.149080 -0.136090 2.888746 4.098926 0.238838 2.665454 0.000000 0.000000 0.000000 159.952941 -29.521466 93.569837 14.468147 -23.399610 3.011808 12.209121 -22.849815 -24.393863 0.000000 0.000000 0.000000 -7.125000 0.000000 0.000000 -18.023252 53.955138 4.069427 0.000000 0.000000 0.000000 -154.088195 -38.450949 -101.440054 -8.481480 -14.330221 -1.068217 -32.695557 1.799724 7.954634 0.000000 0.000000 0.000000 7.125000 0.000000 0.000000 -5.101012 39.358565 -0.711328
-10.660461 17.951957 2.525206 12.989322 -64.743346 -10.184032 0.000000 0.000000 0.000000 -20.498167 -13.725696 -20.992472 4.799005 13.153547 39.946518 0.464775 -6.876955 -12.338745 0.944122 -6.181761 -17.314760 0.000000 0.000000 0.000000 12.518701 16.157704 10.920427 -2.860138 -10.464467 30.494801 -2.666842 -10.026243 -35.635845 -0.229990 3.086717 -8.520314 -1.911823 3.634430 8.244032 -2.041812 4.535153 -0.188125 -1.605720 2.255558 -4.794518 -7.223029 -0.802190 -9.784628 9.318822 -0.711393 2.651824 3.970457 -0.116238 2.440206 0.000000 0.000000 0.000000 155.665825 -31.921571 86.604175 18.188670 -28.395816 4.639729 12.825262 -28.777926 -23.081943 0.000000 0.000000 0.000000 -7.125000 0.000000 0.000000 -16.753218 52.806487 3.292278 0.000000 0.000000 0.000000 -150.627820 -41.614659 -93.497510 -9.750379 -16.348146 -1.403907 -36.902739 0.773907 7.838112 0.000000 0.000000 0.000000 7.125000 0.000000 0.000000 -8.797374 39.598952 -1.182069
-10.548137 18.059023 2.631977 13.322029 -66.313269 -10.898985 0.000000 0.000000 0.000000 -20.630500 -13.573460 -20.502092 4.728106 13.070534 39.633701 0.397515 -5.722321 -11.315513 0.980611 -6.302958 -17.666128 0.000000 0.000000 0.000000 12.699839 16.350393 7.436758 -3.629397 -11.649970 34.504986 -2.192244 -12.927538 -35.024903 -0.049381 1.418847 -3.902243 -1.427441 4.290240 8.067018 -2.153510 5.460004 0.121263 -2.068206 2.703385 -4.306843 -7.171590 -0.399775 -10.561904 7.526576 -0.088243 4.260775 3.453534 0.153283 2.987360 0.000000 0.000000 0.000000 149.650977 -35.396876 74.887064 21.221303 -32.085215 6.167324 12.412633 -33.551676 -23.188470 0.000000 0.000000 0.000000 -7.125000 0.000000 0.000000 -17.207283 52.836676 3.398669 0.000000 0.000000 0.000000 -146.192385 -45.355109 -88.394774 -10.488450 -17.499922 -1.618744 -37.043466 -0.837671 6.703706 0.000000 0.000000 0.000000 7.125000 0.000000 0.000000 -8.840724 38.218412 -1.489675
-10.455807 18.376099 2.683449 12.202049 -66.882867 -9.531787 0.000000 0.000000 0.000000 -20.616484 -13.456179 -19.073226 3.948335 12.090948 36.055129 0.227079 -3.113335 -8.462933 0.945289 -6.191736 -17.342041 0.000000 0.000000 0.000000 13.223347 14.884692 4.862956 -3.526757 -11.502414 33.993950 -1.530398 -16.077387 -33.878856 -0.017106 -0.826309 2.271082 -1.068497 4.059989 7.249236 -1.911369 5.222786 0.071976 -1.924356 2.587627 -3.895465 -6.091110 0.444841 -11.882930 5.573065 1.083091 4.983715 2.756116 0.685382 3.343539 0.000000 0.000000 0.000000 142.970322 -36.987212 60.849452 22.011608 -32.990067 6.592180 12.038805 -30.730978 -23.603085 0.000000 0.000000 0.000000 -7.125000 0.000000 0.000000 -17.779191 53.168358 3.664190 0.000000 0.000000 0.000000 -143.351327 -48.365804 -84.671425 -9.880270 -16.551937 -1.440762 -36.787557 -0.109210 6.485044 0.000000 0.000000 0.000000 7.125000 0.000000 0.000000 -8.603043 37.929035 -1.511084
-10.335177 18.622301 2.675524 9.597072 -68.324751 -6.807137 0.000000 0.000000 0.000000 -19.289385 -13.399326 -18.239537 3.418374 11.343270 33.446545 0.128198 -0.762849 -6.535279 0.620244 -5.040062 -14.022854 0.000000 0.000000 0.000000 14.379100 14.890894 3.044187 -3.243448 -11.079120 32.547127 -1.837509 -12.677494 -32.825592 -0.006026 0.501667 -1.378602 -0.613783 4.054279 6.934229 -1.414466 5.283527 -0.100387 -1.653733 2.616424 -3.902456 -5.377008 0.763245 -12.026422 4.539250 1.507387 3.493945 2.587008 0.851284 3.227718 0.000000 0.000000 0.000000 137.974500 -38.915170 54.562072 21.653736 -32.583440 6.398349 11.493327 -29.309361 -24.141253 0.000000 0.000000 0.000000 -7.125000 0.000000 0.000000 -18.591283 53.583725 4.032960 0.000000 0.000000 0.000000 -141.812672 -49.733916 -86.532803 -9.125568 -15.360232 -1.233130 -37.318630 3.263325 6.584588 0.000000 0.000000 0.000000 7.125000 0.000000 0.000000 -9.069599 38.093350 -1.557652
